<svg width="32" height="32" viewBox="0 0 32 32" fill="none" xmlns="http://www.w3.org/2000/svg">
<path d="M16 18C18.1999 18 20.3667 18.2587 22.5 18.7754C24.6332 19.292 26.7333 20.0664 28.7998 21.0996C29.7665 21.5996 30.5417 22.3254 31.125 23.2754C31.7082 24.2253 32 25.2672 32 26.4004V32H0V26.4004C0 25.2672 0.291743 24.2253 0.875 23.2754C1.45833 22.3254 2.23353 21.5996 3.2002 21.0996C5.26671 20.0664 7.36683 19.292 9.5 18.7754C11.6333 18.2587 13.8 18 16 18ZM16 22C14.1335 22 12.2834 22.2249 10.4502 22.6748C8.61688 23.1248 6.79998 23.8002 5 24.7002C4.7 24.8669 4.45775 25.1004 4.27441 25.4004C4.09128 25.7003 4 26.0339 4 26.4004V28H28V26.4004C28 26.0338 27.9079 25.7003 27.7246 25.4004C27.5413 25.1005 27.2999 24.8669 27 24.7002C25.2 23.8002 23.3831 23.1248 21.5498 22.6748C19.7166 22.2248 17.8666 22 16 22ZM16 0C18.1999 4.00642e-05 20.0828 0.784066 21.6494 2.35059C23.216 3.91715 23.9999 5.80017 24 8C24 10.2 23.2161 12.0838 21.6494 13.6504C20.0828 15.2168 18.1998 16 16 16C13.8 16 11.9163 15.217 10.3496 13.6504C8.78295 12.0838 8 10.2 8 8C8.00007 5.80026 8.78315 3.91711 10.3496 2.35059C11.9163 0.783948 13.8 0 16 0ZM16 4C14.9 4 13.9581 4.39246 13.1748 5.17578C12.3917 5.95898 12.0001 6.90026 12 8C12 9.09996 12.3915 10.0419 13.1748 10.8252C13.9581 11.6085 14.9 12 16 12C17.0999 12 18.0419 11.6085 18.8252 10.8252C19.6084 10.0419 20 9.09988 20 8C19.9999 6.90033 19.6082 5.95895 18.8252 5.17578C18.0419 4.3925 17.0999 4.00004 16 4Z" fill="#FBF5DD"/>
</svg>
