<svg width="35" height="40" viewBox="0 0 35 40" fill="none" xmlns="http://www.w3.org/2000/svg">
<line y1="-1" x2="5.45757" y2="-1" transform="matrix(0.999481 -0.0322354 0.0309902 0.99952 29.5389 19.428)" stroke="black" stroke-width="2"/>
<line y1="-1" x2="5.31305" y2="-1" transform="matrix(-0.994522 0.104529 0.107456 0.99421 5.49878 19.3963)" stroke="black" stroke-width="2"/>
<line y1="-1" x2="5.57166" y2="-1" transform="matrix(0.156415 -0.987692 0.986622 0.163026 21.6394 5.82916)" stroke="black" stroke-width="2"/>
<line y1="-1" x2="5.56809" y2="-1" transform="matrix(-0.292372 -0.956305 -0.95176 0.306846 13.6732 6.13007)" stroke="black" stroke-width="2"/>
<line y1="-1" x2="5.53405" y2="-1" transform="matrix(0.582276 -0.812992 0.80104 0.598612 26.6494 9.31342)" stroke="black" stroke-width="2"/>
<line y1="-1" x2="5.48475" y2="-1" transform="matrix(-0.681999 -0.731354 -0.699338 0.714792 8.69019 9.42804)" stroke="black" stroke-width="2"/>
<line y1="-1" x2="5.47986" y2="-1" transform="matrix(0.896553 -0.442936 0.427947 0.903804 29.4491 14.808)" stroke="black" stroke-width="2"/>
<line y1="-1" x2="5.36341" y2="-1" transform="matrix(-0.945518 -0.325568 -0.28969 0.95712 5.77515 14.8065)" stroke="black" stroke-width="2"/>
<path d="M22.4185 35.9196V37.5407C22.4185 38.4324 21.6891 39.1617 20.7974 39.1618H14.312C13.4202 39.1618 12.6899 38.4325 12.6899 37.5407V35.9196H22.4185ZM17.5542 6.73407C23.8128 6.73407 28.9047 11.8252 28.9048 18.0837C28.9048 21.9424 26.975 25.3311 24.0405 27.3903V31.0554C24.0404 31.947 23.3102 32.6765 22.4185 32.6765H12.6899C11.7983 32.6763 11.069 31.947 11.0688 31.0554V27.3903C8.13415 25.3311 6.20459 21.9426 6.20459 18.0837C6.20471 11.8252 11.2957 6.73418 17.5542 6.73407ZM17.5542 9.97723C13.0793 9.97735 9.44788 13.6088 9.44775 18.0837C9.44775 20.7266 10.7442 23.208 12.9331 24.7321L14.312 25.7048V29.4333H20.7974V25.7048L22.1753 24.7321C24.3642 23.208 25.6616 20.7266 25.6616 18.0837C25.6615 13.6087 22.0292 9.97723 17.5542 9.97723Z" fill="#191919"/>
</svg>
