<svg width="23" height="33" viewBox="0 0 23 33" fill="none" xmlns="http://www.w3.org/2000/svg">
<path d="M6.48568 30.8067C6.48568 31.6985 7.21532 32.4281 8.1071 32.4281H14.5928C15.4846 32.4281 16.2142 31.6985 16.2142 30.8067V29.1853H6.48568V30.8067ZM11.3499 0C5.09126 0 0 5.09121 0 11.3498C0 15.2088 1.92949 18.5975 4.86426 20.6567V24.3211C4.86426 25.2129 5.5939 25.9425 6.48568 25.9425H16.2142C17.106 25.9425 17.8356 25.2129 17.8356 24.3211V20.6567C20.7704 18.5975 22.6999 15.2088 22.6999 11.3498C22.6999 5.09121 17.6086 0 11.3499 0ZM15.971 17.9976L14.5928 18.9704V22.6997H8.1071V18.9704L6.72889 17.9976C4.53998 16.4735 3.24284 13.9927 3.24284 11.3498C3.24284 6.87476 6.87482 3.24281 11.3499 3.24281C15.8251 3.24281 19.457 6.87476 19.457 11.3498C19.457 13.9927 18.1599 16.4735 15.971 17.9976Z" fill="#00FFAB"/>
</svg>
