<svg width="32" height="34" viewBox="0 0 32 34" fill="none" xmlns="http://www.w3.org/2000/svg">
<path d="M14.8057 0.263489C15.4107 -0.112625 16.1903 -0.0862033 16.7705 0.343567L30.75 10.7039C31.1949 11.0339 31.4579 11.5553 31.458 12.1092V28.3895C31.4579 29.6664 30.9241 30.8729 30.0049 31.7488C29.0885 32.622 27.8628 33.0993 26.6016 33.0994H4.85645C3.59507 33.0994 2.36865 32.622 1.45215 31.7488C0.533106 30.8729 9.1227e-05 29.6663 0 28.3895V12.1092C0.000130986 11.5551 0.262836 11.0339 0.708008 10.7039L14.6865 0.343567L14.8057 0.263489ZM3.5 12.9901V28.3895C3.50009 28.6822 3.62154 28.9816 3.86719 29.2156C4.11577 29.4523 4.47038 29.5994 4.85645 29.5994H9.31934V16.5496C9.31934 15.5831 10.1028 14.7996 11.0693 14.7996H20.3887C21.3549 14.7999 22.1387 15.5833 22.1387 16.5496V29.5994H26.6016C26.9876 29.5993 27.3423 29.4524 27.5908 29.2156C27.8364 28.9816 27.9579 28.6822 27.958 28.3895V12.9901L15.7285 3.92755L3.5 12.9901ZM12.8193 29.5994H18.6387V18.2996H12.8193V29.5994Z" fill="#191919"/>
</svg>
