<svg width="81" height="85" viewBox="0 0 81 85" fill="none" xmlns="http://www.w3.org/2000/svg">
<path d="M39.2793 0.26365C39.8845 -0.112725 40.6648 -0.0862095 41.2451 0.343728L79.6973 28.8418C80.1426 29.1718 80.4052 29.6937 80.4053 30.248V75.0293C80.4053 77.6808 79.2996 80.2058 77.3604 82.0537C75.4239 83.8988 72.8142 84.9219 70.1104 84.9219H10.2949C7.59122 84.9218 4.98227 83.8987 3.0459 82.0537C1.10666 80.2058 0 77.6808 0 75.0293V30.248C3.4491e-05 29.6938 0.262784 29.1718 0.708008 28.8418L39.1611 0.343728L39.2793 0.26365ZM3.5 31.1279V75.0293C3.5 76.6964 4.19453 78.3135 5.45996 79.5195C6.72843 80.7282 8.46635 81.4218 10.2949 81.4219H25.6348V42.4609C25.6348 41.4947 26.4186 40.7113 27.3848 40.7109H53.0205C53.9869 40.711 54.7704 41.4945 54.7705 42.4609V81.4219H70.1104C71.939 81.4219 73.6768 80.7282 74.9453 79.5195C76.211 78.3135 76.9053 76.6965 76.9053 75.0293V31.1279L40.2021 3.92771L3.5 31.1279ZM29.1348 81.4219H51.2705V44.2109H29.1348V81.4219Z" fill="#191919"/>
</svg>
