<svg width="32" height="34" viewBox="0 0 32 34" fill="none" xmlns="http://www.w3.org/2000/svg">
<path d="M14.8057 0.263428C15.4107 -0.11269 16.1903 -0.0860897 16.7705 0.343506L30.75 10.7039C31.195 11.0339 31.4579 11.5551 31.458 12.1091V28.3894C31.458 29.6664 30.9241 30.8728 30.0049 31.7488C29.0885 32.6219 27.8628 33.0993 26.6016 33.0994H4.85645C3.59514 33.0993 2.36856 32.622 1.45215 31.7488C0.533214 30.8728 5.72479e-05 29.6662 0 28.3894V12.1091C0.000130957 11.5551 0.263016 11.0339 0.708008 10.7039L14.6865 0.343506L14.8057 0.263428ZM3.5 12.99V28.3894C3.50006 28.6821 3.62166 28.9815 3.86719 29.2156C4.11569 29.4522 4.47046 29.5993 4.85645 29.5994H9.31934V16.5496C9.31934 15.5832 10.103 14.7998 11.0693 14.7996H20.3887C21.3551 14.7997 22.1387 15.5831 22.1387 16.5496V29.5994H26.6016C26.9876 29.5993 27.3423 29.4522 27.5908 29.2156C27.8365 28.9815 27.958 28.6822 27.958 28.3894V12.99L15.7285 3.92749L3.5 12.99ZM12.8193 29.5994H18.6387V18.2996H12.8193V29.5994Z" fill="#00FFAB"/>
</svg>
