<svg width="80" height="80" viewBox="0 0 80 80" fill="none" xmlns="http://www.w3.org/2000/svg">
<path d="M40 0C45.5333 0 50.733 1.05044 55.5996 3.15039C60.4663 5.25039 64.6998 8.1002 68.2998 11.7002C71.8998 15.3002 74.7496 19.5337 76.8496 24.4004C78.9496 29.267 80 34.4667 80 40C80 45.5333 78.9496 50.733 76.8496 55.5996C74.7496 60.4663 71.8998 64.6998 68.2998 68.2998C64.6998 71.8998 60.4663 74.7496 55.5996 76.8496C50.733 78.9496 45.5333 80 40 80C34.4667 80 29.267 78.9496 24.4004 76.8496C19.5337 74.7496 15.3002 71.8998 11.7002 68.2998C8.1002 64.6998 5.25039 60.4663 3.15039 55.5996C1.05044 50.733 0 45.5333 0 40C0 34.4667 1.05044 29.267 3.15039 24.4004C5.25039 19.5337 8.1002 15.3002 11.7002 11.7002C15.3002 8.1002 19.5337 5.25039 24.4004 3.15039C29.267 1.05044 34.4667 0 40 0ZM33.5996 32.7998H14L30 44.2002L24 64L40 51.7998L56 64L50 44.2002L66 32.7998H46.4004L40 12L33.5996 32.7998Z" fill="#191919"/>
</svg>
