<svg width="75" height="75" viewBox="0 0 75 75" fill="none" xmlns="http://www.w3.org/2000/svg">
<path d="M37.5 42.1875C42.6559 42.1875 47.7337 42.7921 52.7334 44.0029C57.7332 45.2138 62.6555 47.0304 67.499 49.4521C69.7645 50.6239 71.5811 52.3235 72.9482 54.5498C74.3154 56.7762 74.999 59.2179 74.999 61.874V74.999H0V61.874C7.11504e-05 59.2179 0.68367 56.7762 2.05078 54.5498C3.41793 52.3235 5.23454 50.6239 7.5 49.4521C12.3436 47.0304 17.2658 45.2138 22.2656 44.0029C27.2655 42.7921 32.3439 42.1875 37.5 42.1875ZM37.5 51.5615C33.1252 51.5615 28.7889 52.0889 24.4922 53.1436C20.1955 54.1982 15.9373 55.7804 11.7188 57.8896C11.0158 58.2802 10.4492 58.8274 10.0195 59.5303C9.58991 60.2333 9.37507 61.0148 9.375 61.874V65.624H65.624V61.874C65.624 61.0148 65.4091 60.2333 64.9795 59.5303C64.5498 58.8274 63.9832 58.2802 63.2803 57.8896C59.0618 55.7805 54.8044 54.1982 50.5078 53.1436C46.2111 52.0889 41.8748 51.5616 37.5 51.5615ZM37.5 0C42.656 0.000104585 47.0695 1.8361 50.7412 5.50781C54.4131 9.17967 56.249 13.5938 56.249 18.75C56.2489 23.9061 54.413 28.3204 50.7412 31.9922C47.0695 35.6636 42.6558 37.4999 37.5 37.5C32.344 37.5 27.9296 35.6638 24.2578 31.9922C20.586 28.3204 18.7501 23.9061 18.75 18.75C18.75 13.5938 20.586 9.17967 24.2578 5.50781C27.9297 1.83596 32.3438 0 37.5 0ZM37.5 9.375C34.9219 9.375 32.7148 10.293 30.8789 12.1289C29.043 13.9648 28.125 16.1719 28.125 18.75C28.1251 21.3279 29.0431 23.5353 30.8789 25.3711C32.7148 27.2067 34.9221 28.125 37.5 28.125C40.0779 28.1249 42.2853 27.2069 44.1211 25.3711C45.9569 23.5353 46.8749 21.3279 46.875 18.75C46.875 16.1721 45.9567 13.9648 44.1211 12.1289C42.2853 10.2931 40.0779 9.3751 37.5 9.375Z" fill="#191919"/>
</svg>
