<svg width="32" height="32" viewBox="0 0 32 32" fill="none" xmlns="http://www.w3.org/2000/svg">
<path d="M16 17.999C18.2 17.999 20.3667 18.2578 22.5 18.7744C24.6333 19.2911 26.7332 20.0663 28.7998 21.0996C29.7665 21.5996 30.5417 22.3244 31.125 23.2744C31.7083 24.2244 32 25.2661 32 26.3994V31.999H0V26.3994C0 25.2661 0.291668 24.2244 0.875 23.2744C1.45833 22.3244 2.23353 21.5996 3.2002 21.0996C5.26683 20.0663 7.3667 19.2911 9.5 18.7744C11.6333 18.2578 13.8 17.999 16 17.999ZM16 21.999C14.1334 21.999 12.2835 22.2248 10.4502 22.6748C8.61688 23.1248 6.79998 23.7993 5 24.6992C4.70005 24.8659 4.45871 25.0995 4.27539 25.3994C4.09206 25.6994 4 26.0328 4 26.3994V27.999H28V26.3994C28 26.0328 27.9079 25.6994 27.7246 25.3994C27.5413 25.0995 27.2999 24.8659 27 24.6992C25.2 23.7993 23.3831 23.1248 21.5498 22.6748C19.7165 22.2248 17.8666 21.999 16 21.999ZM16 0C18.2 0 20.0837 0.782971 21.6504 2.34961C23.217 3.91623 24 5.80008 24 8C23.9999 10.1997 23.2168 12.0829 21.6504 13.6494C20.0837 15.2161 18.2 16 16 16C13.8 16 11.9163 15.216 10.3496 13.6494C8.78321 12.0829 8.00007 10.1997 8 8C8 5.80009 8.78302 3.91623 10.3496 2.34961C11.9163 0.782974 13.8 3.39569e-06 16 0ZM16 4C14.9 4 13.9581 4.39149 13.1748 5.1748C12.3916 5.9581 12 6.90008 12 8C12.0001 9.0997 12.3918 10.041 13.1748 10.8242C13.9581 11.6075 14.9 12 16 12C17.1 12 18.0419 11.6075 18.8252 10.8242C19.6083 10.041 19.9999 9.09971 20 8C20 6.90008 19.6084 5.9581 18.8252 5.1748C18.0419 4.39149 17.1 4 16 4Z" fill="#00FFAB"/>
</svg>
