<svg width="58" height="81" viewBox="0 0 58 81" fill="none" xmlns="http://www.w3.org/2000/svg">
<path d="M40.0889 0C40.5447 2.65177e-05 40.9913 0.130771 41.375 0.376953C41.7291 0.604184 42.0146 0.92171 42.2061 1.29492C46.4321 5.32901 50.5771 9.44701 54.6387 13.6465L56.3828 15.46L56.4482 15.5283L56.4844 15.6172L57.4395 17.9688L57.4746 18.0557L57.4756 18.1504C57.7036 36.6753 57.4761 55.4782 57.5615 74.0605V74.0635C57.5574 75.6948 56.9074 77.2585 55.7539 78.4121C54.6003 79.5657 53.0367 80.2156 51.4053 80.2197H6.16895C4.53806 80.2115 2.97597 79.561 1.82129 78.4092C0.666723 77.2574 0.0122454 75.6972 0 74.0664V6.16699L0.0107422 5.8623C0.100492 4.34546 0.74499 2.90973 1.82715 1.83301C2.98136 0.684802 4.5409 0.0364817 6.16895 0.0283203H6.17188L40.0879 0H40.0889ZM6.16406 4.81934C5.98471 4.81658 5.80615 4.84928 5.63965 4.91602C5.47328 4.98275 5.32205 5.08223 5.19434 5.20801C5.06652 5.33388 4.96478 5.48394 4.89551 5.64941C4.82628 5.81485 4.79099 5.99254 4.79102 6.17188V74.0703C4.78825 74.2524 4.82157 74.4336 4.88965 74.6025C4.95774 74.7713 5.05929 74.9245 5.1875 75.0537C5.31575 75.1829 5.4684 75.2851 5.63672 75.3545C5.80514 75.4239 5.98582 75.4594 6.16797 75.458H51.4111C51.5942 75.4608 51.7767 75.4271 51.9463 75.3584C52.1158 75.2897 52.2701 75.187 52.3994 75.0576C52.5287 74.9282 52.6305 74.774 52.6992 74.6045C52.7679 74.4349 52.8016 74.2533 52.7988 74.0703V19.8965H43.8613C42.2304 19.8843 40.6694 19.23 39.5176 18.0752C38.3659 16.9205 37.7162 15.3584 37.708 13.7275V4.81934H6.16406ZM45.9863 60.3535C46.7651 60.3746 47.3741 60.6897 47.7734 61.1797C48.1667 61.6622 48.3305 62.2802 48.2979 62.8682C48.2651 63.4559 48.0336 64.051 47.5889 64.4873C47.1425 64.925 46.5116 65.1696 45.7461 65.1133V65.1143H11.8174C8.88219 65.0427 8.62444 60.7191 11.5684 60.3555L11.5986 60.3525H45.9873L45.9863 60.3535ZM46.4131 60.9062C46.4828 60.9221 46.5499 60.9408 46.6143 60.9629C46.4853 60.9186 46.3458 60.8863 46.1953 60.8682L46.4131 60.9062ZM43.8682 49.0371C44.6275 49.0415 45.2324 49.3355 45.6426 49.8008C46.0446 50.2568 46.2353 50.8487 46.2354 51.4248C46.2354 52.001 46.0447 52.5937 45.6426 53.0498C45.2324 53.515 44.6275 53.8091 43.8682 53.8135H13.6934C12.9313 53.8091 12.3235 53.5158 11.9111 53.0508C11.5069 52.5947 11.3154 52.0017 11.3154 51.4248C11.3155 50.848 11.5068 50.2548 11.9111 49.7988C12.3235 49.3339 12.9315 49.0414 13.6934 49.0371H43.8682ZM13.0684 53.2188C13.1217 53.2355 13.1766 53.2502 13.2334 53.2627C13.1766 53.2503 13.1217 53.2354 13.0684 53.2188ZM12.876 53.1484C12.9325 53.1733 12.9917 53.1942 13.0527 53.2139C12.9917 53.1942 12.9325 53.1733 12.876 53.1484ZM47.8662 37.7217C48.6523 37.739 49.266 38.0567 49.668 38.5498C50.0612 39.0323 50.226 39.6494 50.1934 40.2373C50.1607 40.8253 49.9293 41.421 49.4844 41.8574C49.038 42.2951 48.4071 42.5396 47.6416 42.4834V42.4844H9.90723V42.4834C8.43781 42.4472 7.64316 41.3231 7.58594 40.2139C7.52874 39.1026 8.20637 37.9056 9.67383 37.7256L9.7041 37.7217H47.8662ZM47.8779 41.9932V41.9941C47.9541 41.9934 48.0281 41.9886 48.0996 41.9805V41.9795C48.028 41.9876 47.9542 41.9924 47.8779 41.9932ZM43.8652 26.4219C43.9352 26.4189 44.0052 26.4186 44.0752 26.4219V26.4209C44.864 26.4381 45.4805 26.7547 45.8838 27.248C46.2784 27.7308 46.4418 28.3485 46.4092 28.9365C46.3765 29.5243 46.1456 30.1194 45.7021 30.5557C45.2571 30.9932 44.6279 31.2388 43.8652 31.1826V31.1836H13.6875L13.6777 31.1826C10.763 31.0752 10.5216 26.7881 13.4639 26.4248L13.4941 26.4209H43.8652V26.4219ZM44.2881 30.6816C44.2992 30.6806 44.3103 30.6809 44.3213 30.6797C44.3392 30.6776 44.3565 30.6724 44.374 30.6699C44.3457 30.6739 44.3172 30.6788 44.2881 30.6816ZM44.4834 30.6514C44.5054 30.647 44.5273 30.6428 44.5488 30.6377C44.5273 30.6428 44.5054 30.647 44.4834 30.6514ZM44.7529 30.5771C44.7365 30.5832 44.7199 30.5891 44.7031 30.5947C44.7092 30.5927 44.7157 30.5919 44.7217 30.5898C44.7323 30.5862 44.7424 30.581 44.7529 30.5771ZM44.874 30.5264C44.8825 30.5225 44.892 30.5206 44.9004 30.5166C44.9122 30.5109 44.9229 30.503 44.9346 30.4971C44.9146 30.5072 44.8945 30.517 44.874 30.5264ZM45.0449 30.4355C45.0543 30.4298 45.064 30.4248 45.0732 30.4189C45.064 30.4248 45.0543 30.4299 45.0449 30.4355ZM42.4697 13.7041C42.4669 13.887 42.5006 14.0687 42.5693 14.2383C42.6381 14.4079 42.7407 14.562 42.8701 14.6914C42.9995 14.8208 43.1536 14.9235 43.3232 14.9922C43.4928 15.0608 43.6745 15.0946 43.8574 15.0918H49.4131L42.4697 8.14844V13.7041ZM52.5273 12.1924C51.975 11.6279 51.4206 11.0655 50.8652 10.5039C51.4205 11.0655 51.9751 11.6278 52.5273 12.1924ZM50.6221 10.2578C50.1454 9.77651 49.6674 9.29647 49.1885 8.81738C49.6674 9.29649 50.1454 9.77648 50.6221 10.2578ZM48.8428 8.47168C48.2994 7.92939 47.7552 7.38804 47.209 6.84863C47.7552 7.38805 48.2995 7.92937 48.8428 8.47168Z" fill="#191919"/>
</svg>
