<svg width="23" height="33" viewBox="0 0 23 33" fill="none" xmlns="http://www.w3.org/2000/svg">
<path d="M16.2139 29.1855V30.8066C16.2139 31.6984 15.4845 32.4277 14.5928 32.4277H8.10742C7.21564 32.4277 6.48535 31.6984 6.48535 30.8066V29.1855H16.2139ZM11.3496 0C17.6082 0 22.7001 5.09109 22.7002 11.3496C22.7002 15.2083 20.7704 18.597 17.8359 20.6562V24.3213C17.8358 25.213 17.1056 25.9424 16.2139 25.9424H6.48535C5.59373 25.9423 4.86437 25.2129 4.86426 24.3213V20.6562C1.92956 18.5971 0 15.2085 0 11.3496C0.000124646 5.09116 5.0911 0.000113678 11.3496 0ZM11.3496 3.24316C6.87466 3.24328 3.24329 6.87471 3.24316 11.3496C3.24316 13.9925 4.5396 16.4739 6.72852 17.998L8.10742 18.9707V22.6992H14.5928V18.9707L15.9707 17.998C18.1596 16.4739 19.457 13.9925 19.457 11.3496C19.4569 6.87464 15.8247 3.24316 11.3496 3.24316Z" fill="#FBF5DD"/>
</svg>
