<svg width="35" height="40" viewBox="0 0 35 40" fill="none" xmlns="http://www.w3.org/2000/svg">
<line y1="-1" x2="5.45757" y2="-1" transform="matrix(0.999481 -0.0322354 0.0309902 0.99952 29.5391 19.4279)" stroke="#00FFAB" stroke-width="2"/>
<line y1="-1" x2="5.31305" y2="-1" transform="matrix(-0.994522 0.104529 0.107456 0.99421 5.4989 19.3962)" stroke="#00FFAB" stroke-width="2"/>
<line y1="-1" x2="5.57166" y2="-1" transform="matrix(0.156415 -0.987692 0.986622 0.163026 21.6395 5.8291)" stroke="#00FFAB" stroke-width="2"/>
<line y1="-1" x2="5.56809" y2="-1" transform="matrix(-0.292372 -0.956305 -0.95176 0.306846 13.6733 6.13)" stroke="#00FFAB" stroke-width="2"/>
<line y1="-1" x2="5.53405" y2="-1" transform="matrix(0.582276 -0.812992 0.80104 0.598612 26.6495 9.31335)" stroke="#00FFAB" stroke-width="2"/>
<line y1="-1" x2="5.48475" y2="-1" transform="matrix(-0.681999 -0.731354 -0.699338 0.714792 8.69031 9.42798)" stroke="#00FFAB" stroke-width="2"/>
<line y1="-1" x2="5.47986" y2="-1" transform="matrix(0.896553 -0.442936 0.427947 0.903804 29.4492 14.8079)" stroke="#00FFAB" stroke-width="2"/>
<line y1="-1" x2="5.36341" y2="-1" transform="matrix(-0.945518 -0.325568 -0.28969 0.95712 5.77527 14.8065)" stroke="#00FFAB" stroke-width="2"/>
<path d="M22.4186 35.9196V37.5406C22.4186 38.4324 21.6892 39.1617 20.7975 39.1617H14.3121C13.4204 39.1617 12.6901 38.4324 12.6901 37.5406V35.9196H22.4186ZM17.5543 6.73401C23.8129 6.73401 28.9048 11.8251 28.9049 18.0836C28.9049 21.9423 26.9751 25.331 24.0406 27.3903V31.0553C24.0405 31.947 23.3103 32.6764 22.4186 32.6764H12.6901C11.7984 32.6763 11.0691 31.9469 11.069 31.0553V27.3903C8.13427 25.3311 6.20471 21.9425 6.20471 18.0836C6.20484 11.8252 11.2958 6.73412 17.5543 6.73401ZM17.5543 9.97717C13.0794 9.97729 9.448 13.6087 9.44788 18.0836C9.44788 20.7265 10.7443 23.2079 12.9332 24.7321L14.3121 25.7047V29.4332H20.7975V25.7047L22.1754 24.7321C24.3643 23.2079 25.6617 20.7265 25.6617 18.0836C25.6616 13.6086 22.0294 9.97717 17.5543 9.97717Z" fill="#00FFAB"/>
</svg>
