<svg width="23" height="32" viewBox="0 0 23 32" fill="none" xmlns="http://www.w3.org/2000/svg">
<path d="M15.7305 6.11861e-10C15.9647 -7.38795e-06 16.1944 0.0669011 16.3916 0.193359C16.5561 0.298935 16.6897 0.444068 16.7871 0.612305C18.1717 1.93466 19.5342 3.27991 20.873 4.64844L22.2217 6.04297L22.2871 6.11133L22.3232 6.2002L22.6904 7.10449L22.7266 7.19238L22.7275 7.28711C22.8152 14.4132 22.7279 21.6591 22.7607 28.7988V28.8027C22.7588 29.5116 22.4758 30.1912 21.9746 30.6924C21.4733 31.1935 20.7938 31.4758 20.085 31.4775H2.67969C1.97134 31.474 1.29254 31.1917 0.791016 30.6914C0.289539 30.1912 0.00535564 29.513 0 28.8047V2.67676L0.015625 2.41406C0.081671 1.80397 0.355245 1.2315 0.793945 0.794922C1.29526 0.296256 1.9726 0.0142871 2.67969 0.0107422H2.68164L15.7305 6.11861e-10ZM2.4668 30.9658C2.53787 30.9732 2.60957 30.9772 2.68164 30.9775H2.68262C2.61028 30.9772 2.53823 30.9732 2.4668 30.9658ZM20.084 30.9775L20.2725 30.9688C20.2748 30.9685 20.277 30.967 20.2793 30.9668C20.2146 30.9728 20.1495 30.9774 20.084 30.9775ZM1.14453 30.3379C1.17104 30.3643 1.19984 30.3882 1.22754 30.4131C1.19971 30.388 1.17117 30.3635 1.14453 30.3369C1.09371 30.2862 1.04524 30.2337 1 30.1787C1.04537 30.2338 1.09356 30.287 1.14453 30.3379ZM20.3643 29.4775C20.3197 29.4956 20.2735 29.5087 20.2266 29.5176C20.2737 29.5088 20.3205 29.4957 20.3652 29.4775C20.4094 29.4596 20.4516 29.4373 20.4912 29.4111C20.4515 29.4374 20.4086 29.4596 20.3643 29.4775ZM2.6748 2.46973C2.64665 2.46931 2.61794 2.4739 2.5918 2.48438C2.56573 2.49487 2.54151 2.51055 2.52148 2.53027C2.50154 2.54999 2.48545 2.57375 2.47461 2.59961C2.46382 2.62546 2.45805 2.65364 2.45801 2.68164V28.8086C2.45759 28.8375 2.46288 28.8667 2.47363 28.8936C2.48448 28.9204 2.50108 28.9452 2.52148 28.9658C2.54195 28.9864 2.5669 29.0026 2.59375 29.0137C2.62038 29.0246 2.64894 29.0304 2.67773 29.0303H20.0918C20.1208 29.0307 20.1499 29.0255 20.1768 29.0146C20.2037 29.0037 20.2284 28.9873 20.249 28.9668C20.2695 28.9463 20.2859 28.9214 20.2969 28.8945C20.3078 28.8675 20.3139 28.8378 20.3135 28.8086V8.26953H17.1797C16.4714 8.26415 15.7932 7.98 15.293 7.47852C14.793 6.97714 14.5105 6.29884 14.5068 5.59082V2.46973H2.6748ZM22.2607 19.7656C22.2539 22.7815 22.2469 25.7974 22.2607 28.8008L22.2539 24.0967C22.255 22.6539 22.2575 21.2098 22.2607 19.7656ZM17.9131 23.2197C17.9423 23.2188 17.9717 23.2185 18.001 23.2197V23.2188C18.388 23.2274 18.711 23.3869 18.9258 23.6504C19.1319 23.9033 19.2125 24.2197 19.1963 24.5117C19.18 24.8037 19.0641 25.1084 18.8311 25.3369C18.5973 25.566 18.2751 25.6863 17.9072 25.665V25.666H4.84668C3.34962 25.6293 3.19729 23.4109 4.7207 23.2227L4.75098 23.2188H17.9131V23.2197ZM4.77637 25.1602H4.77734H4.77637ZM17.1865 18.8652C17.5623 18.8674 17.8802 19.0159 18.0986 19.2637C18.3087 19.5021 18.4033 19.8052 18.4033 20.0918C18.4033 20.3786 18.3089 20.6824 18.0986 20.9209C17.8802 21.1685 17.5622 21.3162 17.1865 21.3184H5.57422C5.19818 21.3162 4.87955 21.1692 4.66016 20.9219C4.44872 20.6834 4.35356 20.3793 4.35352 20.0918C4.35358 19.8044 4.44889 19.5011 4.66016 19.2627C4.87956 19.0152 5.19807 18.8674 5.57422 18.8652H17.1865ZM5.49219 19.3691C5.45325 19.373 5.41623 19.3801 5.38086 19.3887C5.44111 19.374 5.50658 19.3656 5.57715 19.3652L5.49219 19.3691ZM18.7295 14.5127C19.1167 14.5212 19.4394 14.6808 19.6543 14.9443C19.8603 15.1972 19.941 15.5127 19.9248 15.8047C19.9085 16.0967 19.7937 16.4022 19.5605 16.6309C19.3268 16.8599 19.0045 16.9802 18.6367 16.959V16.96H4.11133C3.35684 16.9412 2.9478 16.3516 2.91895 15.7949C2.89011 15.236 3.23933 14.6091 3.99219 14.5166L4.02246 14.5127H18.7295ZM17.2861 10.166C17.6672 10.1782 17.9854 10.3355 18.1982 10.5957C18.4051 10.8487 18.4859 11.165 18.4697 11.457C18.4535 11.749 18.3379 12.0537 18.1055 12.2822C17.8724 12.5112 17.551 12.6326 17.1836 12.6113V12.6123H5.55859C4.07318 12.5575 3.92851 10.357 5.4502 10.1689L5.48047 10.165H17.2871L17.2861 10.166ZM17.5078 12.0771C17.4377 12.1008 17.3599 12.1144 17.2744 12.1152L17.1836 12.1123L17.2715 12.1162C17.3582 12.1156 17.4369 12.1011 17.5078 12.0771ZM16.9541 5.58496C16.9537 5.61398 16.9598 5.64301 16.9707 5.66992C16.9817 5.6969 16.998 5.7216 17.0186 5.74219C17.0392 5.76276 17.0638 5.77909 17.0908 5.79004C17.1178 5.80094 17.1467 5.80608 17.1758 5.80566H18.5752L16.9541 4.18457V5.58496ZM2.68262 1.96875C2.5881 1.9673 2.49399 1.98534 2.40625 2.02051C2.44983 2.00306 2.49509 1.98999 2.54102 1.98145C2.58729 1.97284 2.63434 1.96904 2.68164 1.96973L2.68262 1.96875ZM2.68164 0.510742C2.60988 0.511117 2.53854 0.51514 2.46777 0.522461C2.53874 0.515133 2.61067 0.511098 2.68262 0.510742L15.7305 0.5L2.68164 0.510742Z" fill="#00FFAB"/>
</svg>
