<svg width="32" height="32" viewBox="0 0 32 32" fill="none" xmlns="http://www.w3.org/2000/svg">
<path fill-rule="evenodd" clip-rule="evenodd" d="M16 0C18.2133 0 20.2936 0.419766 22.2402 1.25977C24.1869 2.09976 25.8803 3.23972 27.3203 4.67969C28.7603 6.11966 29.9002 7.81315 30.7402 9.75977C31.5802 11.7064 32 13.7867 32 16C32 18.2133 31.5802 20.2936 30.7402 22.2402C29.9002 24.1869 28.7603 25.8803 27.3203 27.3203C25.8803 28.7603 24.1869 29.9002 22.2402 30.7402C20.2936 31.5802 18.2133 32 16 32C13.7867 32 11.7064 31.5802 9.75977 30.7402C7.81315 29.9002 6.11966 28.7603 4.67969 27.3203C3.23972 25.8803 2.09976 24.1869 1.25977 22.2402C0.419766 20.2936 0 18.2133 0 16C3.01614e-08 13.7867 0.419766 11.7064 1.25977 9.75977C2.09976 7.81315 3.23972 6.11966 4.67969 4.67969C6.11966 3.23972 7.81315 2.09976 9.75977 1.25977C11.7064 0.419766 13.7867 5.96046e-08 16 0ZM13.4404 13.1201H5.59961L12 17.6797L9.59961 25.5996L16 20.7197L22.4004 25.5996L20 17.6797L26.4004 13.1201H18.5596L16 4.7998L13.4404 13.1201Z" fill="#FBF5DD"/>
</svg>
